<svg xmlns="http://www.w3.org/2000/svg" viewBox="0 0 406.28 75.31"><defs><style>.cls-1{fill:#fff;}.cls-2{fill:#ffea52;}</style></defs><title>Ativo 3</title><g id="Camada_2" data-name="Camada 2"><g id="Camada_1-2" data-name="Camada 1"><path id="G" d="M147.11,36.14H133.79a2.5,2.5,0,0,0-2.49,2.49v4.13a2.33,2.33,0,0,0,.74,1.77,2.78,2.78,0,0,0,1.9.68h4.15v6.3a19.59,19.59,0,0,1-2.91.9,18.89,18.89,0,0,1-3.9.38,13.71,13.71,0,0,1-5.29-1,11.79,11.79,0,0,1-4.16-3,13.88,13.88,0,0,1-2.76-4.78,19.54,19.54,0,0,1-1-6.52,18.79,18.79,0,0,1,.93-6.05,13.6,13.6,0,0,1,2.57-4.59,11.48,11.48,0,0,1,4-2.95,13.19,13.19,0,0,1,5.33-1,23.64,23.64,0,0,1,2.91.15,14.23,14.23,0,0,1,4.7,1.39c.76.38,1.56.82,2.4,1.33a3.6,3.6,0,0,0,3.92.27,4,4,0,0,0,1.23-1.24l1.64-2.49a3.64,3.64,0,0,0-.91-5l-.94-.62a22.6,22.6,0,0,0-4-2.08A28.36,28.36,0,0,0,137,13.29a30.3,30.3,0,0,0-5.71-.49,29,29,0,0,0-10.5,1.9,23.22,23.22,0,0,0-8,5.12,22.53,22.53,0,0,0-5,7.72,27.18,27.18,0,0,0-1.79,9.93,26,26,0,0,0,1.9,9.84,23.55,23.55,0,0,0,13,13,25.43,25.43,0,0,0,9.78,1.9A47.43,47.43,0,0,0,136,62a31.45,31.45,0,0,0,4.81-.94,24.56,24.56,0,0,0,4.26-1.61,25.61,25.61,0,0,0,3.81-2.34l.21-.16V38.14a1.91,1.91,0,0,0-1.9-1.91"/><path id="e" d="M181.9,30.66a14.17,14.17,0,0,1,3.24,5,18.57,18.57,0,0,1,1.16,6.72,13.44,13.44,0,0,1-.1,1.9,3.28,3.28,0,0,1-.41,1.33,1.88,1.88,0,0,1-1,.8,3.74,3.74,0,0,1-1.29.19H164.65A8.62,8.62,0,0,0,167,51.87a7.12,7.12,0,0,0,5,1.77,9,9,0,0,0,2.86-.4,14.66,14.66,0,0,0,2.17-.91l1.9-.95a4.21,4.21,0,0,1,1.9-.48A2.58,2.58,0,0,1,183,52l2,2.47a2.14,2.14,0,0,1-.15,2.87,14.34,14.34,0,0,1-2.43,1.9,18.11,18.11,0,0,1-3.81,1.91,21.41,21.41,0,0,1-3.8.89,30.17,30.17,0,0,1-3.67.25,19.26,19.26,0,0,1-6.81-1.18,15.74,15.74,0,0,1-5.6-3.54,16.76,16.76,0,0,1-3.8-5.84,21.77,21.77,0,0,1-1.39-8.07,18.51,18.51,0,0,1,1.2-6.62,16,16,0,0,1,8.79-9.21,19,19,0,0,1,13.31-.3,13.78,13.78,0,0,1,4.95,3.14Zm-16.07,9.13h11.41A8.74,8.74,0,0,0,177,38.1a5,5,0,0,0-.92-1.9,4.55,4.55,0,0,0-1.65-1.3,5.8,5.8,0,0,0-2.53-.49,5.57,5.57,0,0,0-4.15,1.48,7.62,7.62,0,0,0-1.9,3.81Z"/><path id="t" d="M211.16,53.76a2.92,2.92,0,0,0-.68-.8,1.64,1.64,0,0,0-1-.33,2,2,0,0,0-.78.16l-.53.26a2.91,2.91,0,0,1-.55.23,2.55,2.55,0,0,1-.78,0,1.44,1.44,0,0,1-1.22-.55,2.8,2.8,0,0,1-.46-1.64V35H211a2.34,2.34,0,0,0,2.34-2.34V28.81a1.72,1.72,0,0,0-1.72-1.71h-6.45V19.49a2.28,2.28,0,0,0-2.28-2.28h-3.48a2.49,2.49,0,0,0-2.7,1.9L194.77,27l-3.58.7a2.3,2.3,0,0,0-1.9,2.26v2.48A2.3,2.3,0,0,0,191.43,35H194V51.89a12.73,12.73,0,0,0,.69,4.24A8.7,8.7,0,0,0,200,61.54a12.5,12.5,0,0,0,4.41.74,18.19,18.19,0,0,0,5.18-.76A14.62,14.62,0,0,0,213,60a1.9,1.9,0,0,0,.86-1.38,1.93,1.93,0,0,0-.32-1.24l-2.31-3.62Z"/><path id="N" d="M261.92,13.31h-7.61a1.52,1.52,0,0,0-1.52,1.52h0V42.28l-20-27.11a9.47,9.47,0,0,0-.86-.93,3.48,3.48,0,0,0-.88-.59,3.59,3.59,0,0,0-1-.28,9.11,9.11,0,0,0-1.28,0h-4.26a2,2,0,0,0-2,2v44.5a1.78,1.78,0,0,0,1.76,1.77h6.88a2.06,2.06,0,0,0,2-2V32.87L253,59.71a5.11,5.11,0,0,0,1.9,1.58,5.7,5.7,0,0,0,2.34.44h4.28a1.9,1.9,0,0,0,1.9-1.91v-45A1.46,1.46,0,0,0,262,13.31h0"/><path id="n-2" d="M317.87,30.26a10.74,10.74,0,0,0-3.8-2.8,12.35,12.35,0,0,0-5.08-1,14.07,14.07,0,0,0-3.1.32,13.89,13.89,0,0,0-2.67.87A12.31,12.31,0,0,0,300.9,29c-.49.37-1,.77-1.44,1.18L299.11,29a2.76,2.76,0,0,0-1.1-1.54,3.28,3.28,0,0,0-1.9-.51h-4.76a1.9,1.9,0,0,0-1.9,1.9v31a1.9,1.9,0,0,0,1.9,1.9h6.93a2.24,2.24,0,0,0,2.22-2.24V37.41A11.63,11.63,0,0,1,303,35.72a6.6,6.6,0,0,1,2.9-.67,3.6,3.6,0,0,1,2.95,1.2,5.46,5.46,0,0,1,1,3.54V59.88a1.91,1.91,0,0,0,1.91,1.9h6.77a2.38,2.38,0,0,0,2.38-2.37V39.77a17.91,17.91,0,0,0-.76-5.29,12.19,12.19,0,0,0-2.31-4.24"/><path id="a" d="M371.2,30.24a12.85,12.85,0,0,1,2.72,4.38,15.91,15.91,0,0,1,.93,5.51V60a1.71,1.71,0,0,1-1.69,1.72h-3.43a5.18,5.18,0,0,1-2.39-.46,3.44,3.44,0,0,1-1.45-1.9l-.46-1.2c-.64.53-1.29,1-1.9,1.46A16.21,16.21,0,0,1,361,61.08a12.85,12.85,0,0,1-2.78.88,17.55,17.55,0,0,1-3.23.28,13.87,13.87,0,0,1-4.34-.63,9.39,9.39,0,0,1-3.37-1.9,8.45,8.45,0,0,1-2.15-3.1,11.08,11.08,0,0,1-.74-4.22,9.06,9.06,0,0,1,.95-3.92,9.64,9.64,0,0,1,3.31-3.66,20.67,20.67,0,0,1,6.2-2.62,46.76,46.76,0,0,1,10.28-1.09v-.93a4.9,4.9,0,0,0-4.76-5h-.13a7.72,7.72,0,0,0-5.08,1.2c-.61.32-1.2.63-1.77.89a5.17,5.17,0,0,1-2.23.44,3.52,3.52,0,0,1-2-.63,4.27,4.27,0,0,1-1.32-1.42l-1.35-2.38a1.7,1.7,0,0,1,.38-2.13A21,21,0,0,1,353,27.67a24.4,24.4,0,0,1,8.12-1.35,15,15,0,0,1,5.71,1,12.39,12.39,0,0,1,4.32,2.89ZM357.88,49.42a3.23,3.23,0,0,0-1.37,1.14,2.7,2.7,0,0,0-.36,1.39,2.42,2.42,0,0,0,.65,2,4,4,0,0,0,2.45.61,7.49,7.49,0,0,0,3.2-.62,9.68,9.68,0,0,0,2.66-1.91v-3.8a23.42,23.42,0,0,0-4.34.38,11.77,11.77,0,0,0-2.95.93Z"/><path id="S" d="M405.78,46.56a8.24,8.24,0,0,0-1.9-2.64,10.85,10.85,0,0,0-2.61-1.9,24.93,24.93,0,0,0-2.91-1.24c-1-.34-1.9-.66-2.87-1a22.68,22.68,0,0,1-2.43-.88,5.36,5.36,0,0,1-1.62-1,1.57,1.57,0,0,1-.5-1.18,1.92,1.92,0,0,1,.8-1.62,4.57,4.57,0,0,1,2.63-.63,7.92,7.92,0,0,1,2.22.29,16.18,16.18,0,0,1,1.81.64l1.54.67a3.52,3.52,0,0,0,3,0,3.11,3.11,0,0,0,1-1l1.67-2.6a1.9,1.9,0,0,0-.36-2.4,13.23,13.23,0,0,0-1.37-1,15.81,15.81,0,0,0-2.81-1.43,18.6,18.6,0,0,0-3.28-.93,19,19,0,0,0-3.61-.34,18.44,18.44,0,0,0-6,.89,12.58,12.58,0,0,0-4.32,2.44,9.91,9.91,0,0,0-2.61,3.57,10.89,10.89,0,0,0-.87,4.29,10.54,10.54,0,0,0,.72,4.12,9.1,9.1,0,0,0,1.9,2.91,10.65,10.65,0,0,0,2.65,1.91,23.13,23.13,0,0,0,2.93,1.27c1,.34,1.9.67,2.89.93a23.71,23.71,0,0,1,2.45.86,5.4,5.4,0,0,1,1.64,1,1.68,1.68,0,0,1,.51,1.29,2.1,2.1,0,0,1-.76,1.64,3,3,0,0,1-1.1.57,6.8,6.8,0,0,1-1.91.23,7.67,7.67,0,0,1-2.56-.37,11.9,11.9,0,0,1-1.91-.81l-1.5-.84a3.71,3.71,0,0,0-1.9-.46,3.3,3.3,0,0,0-1.79.46,3.84,3.84,0,0,0-1.16,1.18l-1.79,2.83a1.7,1.7,0,0,0,.42,2.25,15.8,15.8,0,0,0,1.56,1,18.76,18.76,0,0,0,3,1.35,23.49,23.49,0,0,0,3.39.89,18.1,18.1,0,0,0,3.52.34,20.29,20.29,0,0,0,6.24-.87,13.23,13.23,0,0,0,4.6-2.47A10.42,10.42,0,0,0,405.33,55a12.31,12.31,0,0,0,.95-4.83,9.09,9.09,0,0,0-.71-3.81"/><g id="i"><path d="M280.7,27h-8.18a1.45,1.45,0,0,0-1.45,1.45V60.3a1.45,1.45,0,0,0,1.45,1.45h8.18a1.44,1.44,0,0,0,1.44-1.45V28.42A1.44,1.44,0,0,0,280.7,27"/><path d="M276.72,21.3c5.56,0,5.56,0,5.56-5.12a5.56,5.56,0,0,0-11.09-.7,4.7,4.7,0,0,0,0,.65c0,5.11,0,5.11,5.55,5.11"/></g><g id="j"><path d="M337.77,27h-8.29a1.43,1.43,0,0,0-1.41,1.43V63.27a10.43,10.43,0,0,1-.17,2,2.32,2.32,0,0,1-.5,1.09,1.85,1.85,0,0,1-.93.53,7.2,7.2,0,0,1-1.79.17,3,3,0,0,0-1.9.44,1.9,1.9,0,0,0-.63,1.37l-.28,4.6a1.34,1.34,0,0,0,1,1.39c.54.12,1.05.21,1.56.29a18.7,18.7,0,0,0,2.36.15,15.65,15.65,0,0,0,5.71-1,9.86,9.86,0,0,0,3.81-2.63,10.12,10.12,0,0,0,2.09-3.8,16.8,16.8,0,0,0,.61-4.62v-35A1.35,1.35,0,0,0,337.68,27h0"/><path d="M333.66,21.3c5.56,0,5.56,0,5.56-5.12a5.56,5.56,0,1,0-11.11,0h0c0,5.12,0,5.12,5.55,5.12"/></g><path d="M79.23,53.2a3.77,3.77,0,0,0-3-2.56l-8.06-1.22-3-6.13V19a9.51,9.51,0,0,0-9.51-9.51H18.92C13.46,5.93.75-3.15.75,1.12c0,3.1,3.2,10.14,6.61,13.94C3.55,16.32-.86,17.91.15,19a12.17,12.17,0,0,0,7.61,1.77V37.22a5.72,5.72,0,0,0-5,1.73,6.28,6.28,0,0,0-1.54,2.57,6.19,6.19,0,0,0,1.1,5.71l2,2.49,5.23,6.36A6.21,6.21,0,0,0,12.38,58a6.19,6.19,0,0,1-4.57-1.9v1a9.51,9.51,0,0,0,9.51,9.51H49.17l-.66,3.92a3.8,3.8,0,0,0,3.22,4.31A4,4,0,0,0,54,74.44l7.21-3.81,7.19,3.81a3.81,3.81,0,0,0,5.09-1.75,3.74,3.74,0,0,0,.35-2.21l-1.35-8,5.82-5.71A3.82,3.82,0,0,0,79.23,53.2Z"/><path id="Fill-6-Copy" class="cls-1" d="M49.93,42.76H23a9.51,9.51,0,0,1-9.51-9.51V31.78A9.51,9.51,0,0,1,23,22.27h26.9a9.51,9.51,0,0,1,9.51,9.51v1.47a9.51,9.51,0,0,1-9.51,9.51"/><path d="M30.24,33.1a1.73,1.73,0,0,1,0-3.45h.12a4.57,4.57,0,0,0-3.54-1.73,4.65,4.65,0,0,0-4.59,4.7v0c0,4.32,0,4.32,4.59,4.32s4.58,0,4.58-4.32A1.76,1.76,0,0,1,30.24,33.1Z"/><path d="M49.88,33.1a1.73,1.73,0,1,1,0-3.45h0a4.52,4.52,0,0,0-3.54-1.71,4.64,4.64,0,0,0-4.59,4.7v0c0,4.32,0,4.32,4.59,4.32s4.58,0,4.58-4.19A1.74,1.74,0,0,1,49.88,33.1Z"/><path id="Fill-1-Copy" class="cls-2" d="M57.35,52.69,61.16,45,65,52.69a1.18,1.18,0,0,0,.88.65l8.52,1.29-6.16,6a1.19,1.19,0,0,0-.35,1l1.43,8.47-7.61-4a1.19,1.19,0,0,0-1.1,0L53,70.1l1.46-8.49a1.16,1.16,0,0,0-.34-1l-6.11-6,8.49-1.23A1.19,1.19,0,0,0,57.35,52.69Z"/></g></g></svg>